<?xml version="1.0" encoding="utf-8"?>
<!-- Generator: Adobe Illustrator 19.1.0, SVG Export Plug-In . SVG Version: 6.00 Build 0)  -->
<svg version="1.1" id="Layer_1" xmlns="http://www.w3.org/2000/svg" xmlns:xlink="http://www.w3.org/1999/xlink" x="0px" y="0px"
	 viewBox="0 0 70.3 70.3" style="enable-background:new 0 0 70.3 70.3;" xml:space="preserve">
<style type="text/css">
	.st0{fill:#B6B6B6;}
</style>
<path class="st0" d="M69.3,9.1c-0.4-2.5-2.2-4.8-4.6-5.9c-3.4-1.6-7.2-2.4-11.4-2.4c-11.8,0-25.1,6.3-35.6,16.8
	C3.3,32.2-2.7,51.4,3.2,64.5c1.3,2.9,4.3,4.9,7.2,4.9c1.5,0,3-0.6,4-1.6l9.3-9.3c2.4-2.4,2.1-6.6-0.8-9.4l-3.3-3.3
	c-0.9-0.9-0.9-1.9-0.8-2.1l24.9-24.9c0,0,0.1-0.1,0.3-0.1c0.5,0,1.2,0.3,1.7,0.9l3.3,3.3c1.3,1.3,3.1,2.1,4.8,2.3
	c1.8,0.2,3.5-0.4,4.6-1.5l9.3-9.3C69.1,13,69.7,11.1,69.3,9.1z M15.1,40c-1.2,1.2-1.8,3-1.5,4.9c0.2,1.6,1,3.3,2.3,4.5l3.3,3.3
	c0.9,0.9,0.9,1.9,0.8,2.1l-9.3,9.3c-0.1,0-0.2,0.1-0.3,0.1c-0.8,0-1.9-0.7-2.4-1.9c-5-11.1,0.6-27.9,13.5-40.9
	C31,11.9,43,6.1,53.4,6.1c3.4,0,6.5,0.6,9.2,1.9c1,0.4,1.5,1.4,1.6,2c0.1,0.3,0,0.5-0.1,0.6L54.8,20c0,0-0.1,0.1-0.3,0.1
	c-0.5,0-1.2-0.3-1.7-0.9l-3.3-3.3c-2.7-2.7-7.1-3.1-9.4-0.8L15.1,40z"/>
</svg>
