<?xml version="1.0" encoding="utf-8"?>
<!-- Generator: Adobe Illustrator 19.1.0, SVG Export Plug-In . SVG Version: 6.00 Build 0)  -->
<svg version="1.1" id="Layer_1" xmlns="http://www.w3.org/2000/svg" xmlns:xlink="http://www.w3.org/1999/xlink" x="0px" y="0px"
	 viewBox="0 0 61 54.8" style="enable-background:new 0 0 61 54.8;" xml:space="preserve">
<style type="text/css">
	.st0{fill:#B6B6B6;}
</style>
<path class="st0" d="M59.9,25.8c0-0.1-0.1-0.2-0.1-0.3c-0.1-0.4-0.4-0.7-0.7-1l-7.7-7.7c-1.2-1.2-3-1.2-4.2,0s-1.2,3.1,0,4.3L50,24
	H23.7c-1.6,0-2.9,1.4-2.9,3s1.3,3,2.9,3h26.7l-3,2.9c-1.2,1.2-1.2,3,0,4.1c1.2,1.2,3,1.1,4.2,0l7.7-7.8
	C60.2,28.3,60.4,26.9,59.9,25.8z"/>
<path class="st0" d="M36.9,34.5c-1.6,0-2.6,1.3-2.6,2.9v7.7c0,1.8-1.2,3.7-3,3.7h-21c-1.8,0-3.8-1.9-3.8-3.7V8.7
	C6.5,6.8,8.4,6,10.3,6h21c1.8,0,3,0.8,3,2.7v7.7c0,1.6,1,2.9,2.6,2.9s2.6-1.3,2.6-2.9V8.7c0-5-3.3-8.7-8.3-8.7h-21
	c-5,0-9.8,3.6-9.8,8.7v36.4c0,5,4.8,9.7,9.8,9.7h21c5,0,8.3-4.7,8.3-9.7v-7.7C39.5,35.8,38.5,34.5,36.9,34.5z"/>
</svg>
