<?xml version="1.0" encoding="utf-8"?>
<!-- Generator: Adobe Illustrator 19.1.0, SVG Export Plug-In . SVG Version: 6.00 Build 0)  -->
<svg version="1.1" id="Layer_1" xmlns="http://www.w3.org/2000/svg" xmlns:xlink="http://www.w3.org/1999/xlink" x="0px" y="0px"
	 viewBox="0 0 63 63" style="enable-background:new 0 0 63 63;" xml:space="preserve">
<style type="text/css">
	.st0{fill:#B6B6B6;}
</style>
<g>
	<path class="st0" d="M31.5,33.7c9,0,16.2-7.3,16.2-16.2c0-9-7.3-16.2-16.2-16.2S15.3,8.5,15.3,17.4C15.3,26.4,22.5,33.7,31.5,33.7z
		 M31.5,5.5c6.6,0,11.9,5.3,11.9,11.9c0,6.6-5.3,11.9-11.9,11.9S19.6,24,19.6,17.4C19.6,10.9,24.9,5.5,31.5,5.5z"/>
	<path class="st0" d="M59.6,47.7c-2.8-6.1-8-10.2-15.5-12.2l-0.9-0.2l-0.8,0.5c-3.3,2-7,3-10.9,3c-3.8,0-7.6-1-10.9-3l-0.8-0.5
		L19,35.5c-7.5,2-12.8,6.1-15.5,12.2c-2.2,4.8-2.2,9.6-2.2,11.9v2.2h60.6v-2.2C61.8,57.3,61.8,52.5,59.6,47.7z M5.6,57.5
		c0.2-3.1,0.7-5.7,1.8-8c2.1-4.6,6.1-7.8,11.9-9.6c3.7,2,8,3.1,12.3,3.1c4.3,0,8.5-1.1,12.2-3.1c5.8,1.7,9.8,5,11.9,9.6
		c1,2.3,1.6,4.9,1.8,8H5.6z"/>
</g>
</svg>
