<?xml version="1.0" encoding="utf-8"?>
<!-- Generator: Adobe Illustrator 19.1.0, SVG Export Plug-In . SVG Version: 6.00 Build 0)  -->
<svg version="1.1" id="Layer_1" xmlns="http://www.w3.org/2000/svg" xmlns:xlink="http://www.w3.org/1999/xlink" x="0px" y="0px"
	 viewBox="0 0 57.1 66.9" style="enable-background:new 0 0 57.1 66.9;" xml:space="preserve">
<style type="text/css">
	.st0{fill:#B6B6B6;}
</style>
<g>
	<path class="st0" d="M42.9,31.1H18.1c-1.2,0-2.2,1-2.2,2.2c0,1.2,1,2.2,2.2,2.2h24.8c1.2,0,2.2-1,2.2-2.2
		C45,32.1,44.1,31.1,42.9,31.1z"/>
	<path class="st0" d="M42.9,45.7H18.1c-1.2,0-2.2,1-2.2,2.2c0,1.2,1,2.2,2.2,2.2h24.8c1.2,0,2.2-1,2.2-2.2
		C45,46.7,44.1,45.7,42.9,45.7z"/>
	<path class="st0" d="M49.6,0H11.2C7.8,0,4,4.4,3.8,7.6v3.2H2.2c-1.2,0-2.2,1-2.2,2.2c0,1.2,1,2.2,2.2,2.2h1.7v5.9H2.2
		c-1.2,0-2.2,1-2.2,2.2s1,2.2,2.2,2.2h1.7v5.9H2.2c-1.2,0-2.2,1-2.2,2.2s1,2.2,2.2,2.2h1.7v5.9H2.2c-1.2,0-2.2,1-2.2,2.2
		s1,2.2,2.2,2.2h1.7v5.9l-1.7,0c-1.2,0-2.2,1-2.2,2.2s1,2.2,2.2,2.2h1.7V59c0,2.9,3.8,7.4,7.2,7.6h38.8c2.7,0,7.1-4.1,7.2-7.7V7.6
		C57.1,4.4,53.2,0,49.6,0z M48.9,4.3c0.7-0.1,1.6,0.3,2.4,1.1c0.9,0.8,1.5,1.9,1.5,2.7l0,50.3c0.1,0.4-0.3,1.4-1.2,2.4
		c-0.8,0.9-1.7,1.5-2.4,1.5H11.5c-1.2,0-3.4-2.4-3.4-3.7L8.1,8C8.1,7.3,8.7,6.1,9.7,5.3c0.7-0.6,1.4-1,2-1c0.1,0,0.2,0,0.2,0h36.8v0
		L48.9,4.3z"/>
	<path class="st0" d="M42.9,16.5H18.1c-1.2,0-2.2,1-2.2,2.2s1,2.2,2.2,2.2h24.8c1.2,0,2.2-1,2.2-2.2S44.1,16.5,42.9,16.5z"/>
</g>
</svg>
